<?xml version="1.0" encoding="utf-8"?>
<!-- Generator: Adobe Illustrator 22.1.0, SVG Export Plug-In . SVG Version: 6.00 Build 0)  -->
<svg version="1.1" id="Layer_1" focusable="false" xmlns="http://www.w3.org/2000/svg" xmlns:xlink="http://www.w3.org/1999/xlink"
	 x="0px" y="0px" viewBox="0 0 512 384" style="enable-background:new 0 0 512 384;" xml:space="preserve">
<style type="text/css">
	.st0{fill:#FFFFFF;}
</style>
<path class="st0" d="M502.3,126.8c3.9-3.1,9.7-0.2,9.7,4.7V336c0,26.5-21.5,48-48,48H48c-26.5,0-48-21.5-48-48V131.6
	c0-5,5.7-7.8,9.7-4.7c22.4,17.4,52.1,39.5,154.1,113.6c21.1,15.4,56.7,47.8,92.2,47.6c35.7,0.3,72-32.8,92.3-47.6
	C450.3,166.4,479.9,144.2,502.3,126.8z M256,256c23.2,0.4,56.6-29.2,73.4-41.4c132.7-96.3,142.8-104.7,173.4-128.7
	c5.8-4.5,9.2-11.5,9.2-18.9V48c0-26.5-21.5-48-48-48H48C21.5,0,0,21.5,0,48v19c0,7.4,3.4,14.3,9.2,18.9
	c30.6,23.9,40.7,32.4,173.4,128.7C199.4,226.8,232.8,256.4,256,256L256,256z"/>
</svg>
